<?xml version="1.0" standalone="no"?>
<!DOCTYPE svg PUBLIC "-//W3C//DTD SVG 20010904//EN"
 "http://www.w3.org/TR/2001/REC-SVG-20010904/DTD/svg10.dtd">
<svg version="1.0" xmlns="http://www.w3.org/2000/svg"
 width="1280.000000pt" height="1000.000000pt" viewBox="0 0 1280.000000 1000.000000"
 preserveAspectRatio="xMidYMid meet">
<metadata>
Created by potrace 1.15, written by Peter Selinger 2001-2017
</metadata>
<g transform="translate(0.000000,1000.000000) scale(0.100000,-0.100000)"
fill="white" stroke="none">
<path d="M12425 9954 c-44 -26 -97 -56 -117 -68 -21 -11 -38 -26 -38 -32 0
-22 -42 -64 -63 -64 -12 0 -31 7 -41 15 -28 21 -102 19 -123 -3 -17 -17 -20
-16 -71 20 l-53 37 -72 -35 -72 -36 -105 8 c-158 12 -181 10 -233 -20 -26 -15
-51 -25 -57 -21 -6 4 -22 24 -36 46 -23 37 -55 51 -68 30 -3 -5 -28 -2 -57 6
-63 19 -94 8 -138 -48 -18 -21 -40 -39 -50 -39 -10 0 -36 14 -57 31 -36 28
-43 30 -89 24 -119 -16 -134 -16 -152 -7 -14 8 -41 5 -103 -14 -134 -39 -179
-32 -257 38 -45 41 -70 46 -135 28 -48 -14 -57 -29 -28 -52 27 -22 23 -22 -23
-3 -50 21 -192 20 -232 -1 -16 -8 -43 -31 -58 -50 -40 -48 -73 -46 -120 6 -42
47 -66 50 -145 20 l-53 -20 -62 30 c-34 16 -76 30 -94 30 -19 0 -71 -20 -129
-51 -95 -50 -98 -51 -163 -45 -36 3 -138 9 -226 12 -142 6 -173 4 -270 -16
-174 -35 -235 -32 -390 24 -117 43 -137 47 -199 44 -51 -3 -71 -8 -81 -22 -13
-17 -17 -16 -72 17 -52 31 -68 36 -151 41 -84 6 -97 5 -127 -14 -31 -19 -52
-21 -197 -24 l-163 -2 -99 -43 c-93 -41 -104 -43 -163 -38 -34 4 -95 18 -135
33 -167 60 -210 64 -289 24 -21 -11 -53 -20 -71 -20 -54 1 -244 36 -228 42 24
9 -12 31 -106 64 l-83 29 -56 -28 c-66 -32 -78 -33 -115 -7 -19 13 -44 20 -72
20 -24 -1 -72 2 -108 5 -52 6 -80 3 -133 -14 -87 -27 -212 -37 -259 -22 -31
10 -40 9 -81 -14 -41 -23 -50 -25 -84 -15 -21 5 -56 24 -77 40 -32 25 -49 30
-93 30 -55 0 -115 -11 -196 -37 -73 -23 -207 -13 -282 21 -71 32 -76 32 -103
1 -21 -24 -26 -25 -87 -19 -53 6 -66 4 -70 -8 -4 -9 -23 -18 -44 -22 -45 -7
-188 17 -230 38 -16 9 -37 16 -46 16 -15 0 -72 -28 -108 -53 -15 -10 -23 -6
-57 31 -21 23 -43 42 -47 42 -5 0 -26 -10 -48 -21 -40 -22 -181 -37 -170 -18
7 10 -31 35 -66 44 -19 5 -49 -3 -100 -26 -41 -18 -94 -34 -119 -36 -38 -4
-53 1 -100 31 -30 20 -63 36 -73 36 -10 0 -33 -16 -50 -35 -38 -43 -53 -44
-102 -5 -31 25 -47 30 -91 30 -59 0 -68 -8 -117 -107 -47 -93 -100 -113 -187
-71 -42 21 -57 22 -240 20 -217 -2 -295 7 -373 42 -28 14 -83 36 -121 50 -38
15 -93 40 -123 57 -49 28 -60 31 -101 24 -52 -8 -47 -8 -186 -1 -97 5 -100 6
-124 35 -13 17 -29 31 -35 31 -18 -1 -89 -57 -108 -86 -15 -24 -23 -26 -95
-29 -56 -1 -86 2 -102 13 -44 29 -207 2 -327 -53 -95 -43 -167 -105 -226 -193
-67 -101 -91 -181 -94 -313 l-2 -107 -57 -82 c-31 -45 -56 -85 -56 -88 0 -4 7
2 15 12 8 11 17 18 19 15 8 -8 -29 -103 -42 -107 -7 -2 -21 16 -33 43 -11 26
-22 45 -24 43 -3 -2 0 -74 5 -160 8 -149 18 -198 41 -198 6 0 9 -14 7 -31 -3
-28 -9 -34 -57 -52 l-54 -21 31 -10 c42 -15 49 -24 28 -39 -16 -12 -16 -14 3
-31 12 -11 21 -27 21 -36 0 -9 5 -21 11 -27 8 -8 7 -17 -5 -34 -20 -29 -20
-62 0 -100 14 -27 14 -33 1 -47 -9 -10 -13 -31 -11 -52 2 -19 6 -66 9 -105 3
-38 13 -96 23 -128 16 -50 20 -56 32 -43 15 18 30 21 30 5 0 -6 -18 -36 -40
-68 -22 -31 -40 -66 -40 -76 0 -19 42 -246 47 -254 1 -2 12 8 25 21 13 13 17
17 10 8 -16 -22 -15 -30 8 -55 10 -11 27 -49 35 -84 16 -58 15 -68 0 -132 -10
-40 -15 -83 -11 -102 7 -35 42 -84 53 -73 4 3 28 -34 55 -83 44 -80 47 -92 37
-115 -11 -23 -10 -28 6 -40 17 -12 18 -18 6 -52 -10 -30 -10 -55 -1 -109 6
-38 15 -74 20 -79 4 -4 23 -5 41 -1 l33 7 -37 30 c-43 35 -47 62 -15 103 25
32 30 26 48 -58 16 -79 8 -107 -30 -107 -17 0 -30 -3 -30 -7 0 -5 20 -42 45
-83 l44 -75 -21 -22 c-27 -29 -17 -41 16 -20 24 16 26 16 45 -9 11 -14 23 -46
27 -72 4 -26 24 -81 45 -122 36 -68 39 -83 42 -163 2 -75 -1 -91 -16 -102 -17
-12 -16 -15 12 -57 16 -24 38 -67 50 -97 12 -31 40 -74 70 -106 28 -30 51 -57
51 -62 0 -4 -14 -16 -30 -25 -17 -9 -30 -25 -30 -36 0 -32 31 -123 39 -117 5
3 12 -7 16 -22 3 -15 31 -62 60 -104 48 -69 52 -77 34 -82 -17 -5 -19 -14 -19
-84 0 -72 4 -86 41 -164 41 -84 41 -84 35 -174 -9 -143 -16 -184 -32 -178 -8
3 -14 0 -14 -6 0 -6 7 -11 15 -11 20 0 19 -4 -10 -90 -29 -84 -31 -123 -10
-200 8 -30 15 -67 15 -82 0 -34 13 -36 28 -5 6 12 11 16 11 9 1 -7 -5 -25 -13
-40 -21 -41 -6 -159 25 -202 l24 -32 -44 -38 c-40 -35 -43 -41 -38 -74 5 -31
1 -42 -25 -71 -32 -37 -32 -61 -1 -72 32 -11 53 -36 53 -62 0 -15 13 -43 29
-62 52 -62 38 -176 -24 -199 -14 -5 -25 -16 -25 -25 0 -20 10 -19 26 2 28 39
26 -2 -4 -60 -17 -34 -41 -102 -52 -152 -11 -49 -29 -108 -40 -131 -24 -49
-60 -219 -60 -280 0 -38 6 -51 41 -89 l42 -45 -42 0 c-42 0 -50 -7 -29 -28 9
-9 9 -21 0 -50 -18 -59 -48 -92 -83 -92 -28 0 -29 -2 -18 -23 19 -36 61 -77
81 -77 10 0 18 -2 18 -5 0 -2 -16 -33 -35 -68 -19 -35 -35 -67 -35 -70 0 -4
14 -7 30 -7 17 0 30 -4 30 -10 0 -5 -13 -7 -30 -3 -23 4 -30 2 -30 -10 0 -8
-6 -17 -12 -20 -7 -2 -10 -8 -5 -13 4 -4 14 2 23 14 8 12 20 22 26 22 7 0 0
-12 -14 -27 -23 -25 -26 -42 -41 -185 -14 -149 -17 -160 -53 -226 -33 -60 -36
-72 -25 -86 17 -20 32 -21 24 0 -3 9 6 27 23 45 52 54 62 26 14 -40 -32 -43
-45 -94 -59 -223 l-7 -69 29 7 29 6 -7 -38 c-18 -95 3 -194 40 -194 11 0 9
-11 -9 -52 -140 -314 -186 -453 -186 -558 0 -138 68 -274 171 -340 58 -37 97
-51 317 -113 l124 -34 23 38 c27 41 84 89 107 89 8 0 33 -13 54 -28 36 -26
124 -67 128 -60 27 43 42 58 87 83 48 27 62 30 134 29 65 -2 98 -9 180 -39
128 -48 184 -49 315 -6 52 17 96 31 98 31 1 0 2 -7 2 -16 0 -8 -4 -13 -9 -10
-5 3 -12 -1 -15 -10 -8 -22 -9 -22 20 -16 16 3 23 9 20 18 -3 9 11 23 42 39
54 28 52 31 -7 10 -55 -19 -53 -2 2 19 67 25 134 20 254 -20 123 -41 152 -41
261 2 63 26 67 26 95 10 29 -16 29 -16 56 15 67 80 66 79 128 79 32 0 83 7
113 15 30 8 58 15 62 15 4 0 30 -20 58 -45 28 -25 55 -45 61 -45 5 0 27 9 49
20 44 23 58 20 135 -29 27 -17 55 -31 63 -31 8 0 31 14 52 30 57 45 101 60
178 60 87 0 164 -14 219 -41 41 -20 53 -20 229 -14 175 7 187 9 214 31 15 13
32 24 38 24 5 0 33 -23 62 -51 29 -28 55 -47 59 -41 12 19 50 23 78 9 17 -9
36 -12 48 -7 11 4 54 11 95 15 41 4 104 19 139 32 65 24 92 26 176 8 20 -4 62
4 130 26 61 19 126 33 165 34 53 2 81 10 150 44 107 52 196 71 332 71 96 0
108 -2 118 -19 12 -24 76 -37 217 -46 106 -7 148 -1 137 17 -5 8 -1 9 10 5 78
-30 148 -39 281 -35 114 3 145 8 168 22 l28 19 67 -47 c74 -51 109 -57 179
-32 38 13 44 12 106 -14 l66 -28 22 24 c19 21 32 24 88 24 44 0 81 7 110 20
52 24 51 24 51 5 0 -21 42 -19 114 5 70 24 126 26 126 6 0 -42 136 -46 293
-10 106 24 141 26 178 10 13 -6 17 5 25 55 12 84 27 92 91 51 59 -38 69 -39
100 -10 21 20 33 21 150 21 117 -1 132 1 177 24 62 31 91 28 205 -28 75 -36
99 -42 186 -49 55 -5 117 -16 139 -25 39 -16 39 -16 83 15 l44 32 28 -26 c34
-33 46 -33 75 1 27 31 39 26 66 -28 11 -21 24 -39 29 -39 4 0 26 14 47 31 28
22 45 28 62 24 21 -5 309 -35 340 -35 18 0 15 -17 -5 -24 -9 -4 -20 -1 -25 6
-11 18 -10 7 3 -31 6 -17 19 -36 28 -41 10 -5 63 -10 118 -11 l100 -1 102 81
c144 115 147 116 245 102 45 -6 102 -11 128 -11 27 0 75 -9 108 -21 54 -19 66
-19 112 -9 59 15 221 8 242 -9 8 -7 29 -9 53 -5 33 5 49 1 94 -24 30 -17 78
-33 109 -37 88 -12 98 -19 130 -89 16 -36 35 -68 41 -72 29 -18 104 -2 235 50
342 134 416 187 486 351 37 86 111 286 107 288 -55 29 -58 47 -9 63 41 14 48
29 20 44 -12 6 -19 18 -16 25 3 8 -7 18 -25 25 -34 14 -33 27 7 96 13 22 24
54 24 70 0 17 5 35 11 41 19 19 4 39 -50 69 -28 15 -51 33 -51 39 0 7 14 18
30 25 39 16 43 23 29 53 -9 19 -8 31 5 55 20 39 21 78 1 85 -8 4 -24 25 -35
48 -24 47 -23 76 6 151 16 40 17 53 7 79 -11 28 -10 36 7 59 22 32 26 80 8 98
-10 10 -7 22 12 57 24 43 24 45 7 80 -23 48 -22 64 10 97 l27 28 -28 0 c-28 0
-76 39 -76 62 0 8 14 26 31 41 27 23 31 32 25 59 -4 18 -20 47 -37 64 l-31 32
40 29 40 29 -29 11 c-16 6 -34 23 -40 37 -11 23 -9 29 14 54 30 31 32 24 -40
144 -42 68 -42 96 1 147 l35 41 -5 103 c-3 56 -6 134 -8 172 -1 39 -8 80 -15
93 -8 14 -10 36 -5 55 6 28 8 29 14 12 6 -16 15 -6 45 58 29 60 39 95 43 148
3 45 1 69 -6 69 -6 0 -13 -10 -15 -23 -4 -19 -4 -18 -6 6 0 15 3 27 8 27 10 0
26 45 36 101 6 34 4 38 -29 58 -49 31 -50 73 -1 131 42 50 43 63 8 98 -24 23
-28 36 -29 87 -1 39 -8 76 -22 105 -28 59 -27 93 4 160 21 45 25 67 23 120 -3
56 0 71 20 98 l23 33 -21 23 c-21 22 -91 273 -91 326 0 42 46 120 110 189 43
47 56 67 47 73 -6 5 -24 16 -39 25 -14 9 -29 29 -32 44 -3 15 -19 43 -36 63
-39 43 -34 64 20 95 52 29 59 45 56 117 -1 43 -9 71 -29 105 -19 32 -27 60
-27 92 0 41 4 49 35 73 43 33 44 56 4 102 -27 31 -30 40 -24 71 4 20 7 48 7
62 -1 18 8 30 29 43 36 21 37 35 4 66 -23 21 -26 31 -23 80 2 45 6 55 21 54
21 -2 21 -4 -5 51 -14 28 -29 45 -40 45 -20 0 -48 57 -48 98 0 14 12 43 27 65
37 53 122 333 131 429 5 50 13 83 25 95 23 26 22 35 -12 67 -32 31 -32 46 5
86 30 33 42 95 19 103 -19 8 -54 82 -55 115 0 14 9 26 25 34 30 13 38 37 33
99 -2 34 -7 44 -20 43 -15 -1 -16 2 -6 20 6 11 15 38 18 58 6 31 4 37 -14 43
-18 6 -19 8 -3 12 27 7 20 23 -12 23 -49 0 -57 21 -40 103 l14 72 38 6 c55 9
60 19 38 70 -24 55 -37 128 -51 294 -14 171 -17 182 -56 236 -19 26 -34 55
-34 66 0 11 17 44 38 74 21 30 41 61 44 70 7 19 -20 83 -62 144 -21 31 -35 67
-42 109 l-11 64 37 47 c54 72 91 154 90 200 -1 22 -16 74 -33 116 -17 44 -38
122 -47 180 -18 116 -29 149 -76 220 -21 33 -38 49 -52 49 -12 0 -57 -21 -101
-46z m-10385 -1073 c0 -17 103 -31 205 -29 94 2 104 1 169 -30 76 -35 213 -67
255 -59 20 4 51 -7 120 -44 103 -54 110 -56 91 -34 -15 18 -7 29 27 39 17 6
25 1 36 -20 14 -26 20 -28 83 -30 42 -1 78 3 95 11 23 12 35 11 104 -12 l78
-26 31 36 c33 40 56 46 76 22 17 -20 89 -20 96 0 5 13 11 12 43 -4 20 -11 70
-27 111 -36 60 -13 83 -14 116 -5 31 9 47 9 62 1 33 -18 49 -13 85 23 19 19
48 41 66 50 l30 16 29 -57 c37 -76 66 -82 102 -23 28 46 46 55 84 40 18 -6 34
-6 50 2 14 6 35 8 49 4 35 -8 79 -46 73 -62 -8 -22 41 -17 75 7 27 19 38 20
137 14 236 -14 275 -13 301 7 28 22 49 22 75 3 13 -10 43 -15 86 -15 72 0 86
6 68 27 -18 22 7 33 74 33 54 0 60 -3 108 -45 28 -25 53 -45 56 -45 17 0 81
34 112 60 43 36 52 36 136 9 62 -20 66 -21 122 -4 l57 17 24 -31 c34 -43 58
-40 170 19 88 46 101 50 165 50 57 0 69 -3 65 -14 -4 -10 16 -5 65 15 105 45
169 53 338 39 80 -6 163 -16 185 -22 85 -22 255 -3 255 29 0 9 6 12 18 9 72
-22 145 -36 192 -37 41 -1 49 -3 30 -9 l-25 -7 25 -10 c14 -6 58 -18 98 -28
58 -14 79 -15 98 -6 41 18 71 13 107 -19 45 -39 86 -39 165 0 l61 31 40 -21
c55 -27 77 -25 141 13 30 18 83 43 117 56 54 20 69 22 119 13 70 -12 206 2
288 29 l58 20 87 -25 c130 -37 224 -50 356 -50 105 1 128 4 189 27 74 29 71
30 135 -22 42 -34 47 -36 140 -39 68 -3 112 0 148 11 93 28 373 6 516 -40 44
-14 52 -14 85 0 24 11 68 16 127 17 50 0 99 0 110 1 11 0 62 -3 113 -7 88 -6
95 -5 141 20 55 29 89 33 130 12 43 -23 357 -95 381 -89 3 1 55 21 115 44 84
33 130 44 195 49 47 4 93 10 102 14 15 7 16 1 11 -66 -6 -80 -10 -90 -23 -68
-7 10 -10 -7 -10 -52 0 -58 -3 -67 -20 -73 -23 -7 -27 -43 -5 -51 21 -8 19
-58 -7 -184 -12 -58 -22 -148 -23 -200 -1 -78 -5 -103 -24 -139 -19 -37 -22
-53 -16 -99 6 -50 5 -56 -21 -83 -27 -28 -27 -29 -6 -29 18 0 22 -6 22 -32 0
-17 5 -47 12 -65 11 -31 10 -35 -21 -67 l-34 -35 32 -39 c42 -54 42 -102 1
-149 -39 -44 -38 -65 4 -96 29 -23 34 -33 38 -79 3 -29 9 -61 13 -71 6 -14 2
-20 -14 -24 -26 -7 -27 -19 -3 -32 47 -28 47 -27 -2 -85 -55 -64 -81 -135 -95
-260 -7 -60 -19 -101 -46 -156 -37 -76 -41 -117 -19 -198 6 -21 4 -22 -20 -16
-29 7 -35 -6 -10 -27 36 -30 58 -109 34 -124 -6 -4 -3 -17 10 -35 20 -28 20
-30 3 -115 -13 -71 -14 -94 -5 -126 40 -131 39 -115 3 -152 l-32 -34 24 -29
c13 -16 32 -44 41 -63 17 -32 17 -36 1 -78 -12 -30 -15 -58 -11 -86 5 -35 2
-52 -23 -98 l-30 -55 50 -70 c61 -82 89 -135 89 -165 0 -12 -14 -44 -31 -71
-25 -38 -30 -55 -25 -81 4 -17 9 -55 12 -83 6 -49 4 -53 -32 -94 -48 -53 -47
-83 2 -159 47 -70 50 -99 24 -206 -15 -63 -20 -104 -15 -138 5 -38 2 -55 -14
-81 -25 -40 -36 -103 -23 -137 10 -24 6 -31 -49 -83 l-60 -57 6 -122 c4 -67 3
-149 -2 -182 -12 -84 -7 -103 25 -107 20 -2 30 -12 40 -40 13 -34 13 -39 -8
-67 -12 -17 -17 -31 -11 -31 20 0 13 -85 -9 -113 -28 -35 -25 -51 14 -94 18
-21 36 -51 40 -68 3 -16 2 -94 -3 -172 -8 -133 -11 -147 -41 -199 l-31 -56 22
-65 c17 -52 19 -70 10 -89 -6 -15 -7 -24 -1 -24 13 0 13 -87 1 -94 -5 -4 -11
0 -14 6 -10 30 -14 -1 -5 -52 14 -85 12 -175 -5 -202 -14 -20 -14 -28 0 -68
15 -44 15 -44 -10 -66 -23 -20 -24 -24 -11 -35 9 -7 28 -31 44 -53 23 -35 25
-43 14 -54 -20 -19 -17 -82 6 -125 22 -41 26 -88 9 -119 -12 -22 -104 -67
-189 -91 -156 -45 -370 -59 -564 -37 -90 11 -149 29 -94 30 37 0 44 16 13 33
-21 10 -40 11 -86 4 -55 -9 -64 -8 -112 17 -43 21 -66 26 -127 26 -62 0 -113
11 -315 69 -132 39 -278 80 -324 93 l-84 23 2 285 1 285 54 110 c29 61 78 144
108 187 30 42 67 107 82 144 38 93 56 116 123 152 74 39 124 89 168 168 62
110 128 151 325 199 79 20 150 39 158 44 32 18 -12 21 -137 10 -71 -6 -135 -9
-142 -7 -16 5 291 108 323 108 13 0 45 -7 72 -15 27 -8 62 -15 78 -15 28 0 37
13 18 25 -25 15 -5 25 50 25 33 0 60 4 60 10 0 6 -30 10 -71 10 -38 0 -68 4
-65 9 10 16 87 22 147 11 60 -11 99 -7 99 11 0 5 -7 9 -15 9 -19 0 -19 17 0
50 19 33 19 94 0 110 -21 17 -32 4 -17 -20 17 -28 15 -37 -15 -81 l-28 -39
-80 0 c-44 0 -105 -7 -135 -15 -30 -8 -56 -15 -58 -15 -12 0 19 27 71 62 34
23 112 82 172 131 157 127 245 174 245 132 0 -9 -21 -38 -47 -66 -25 -27 -44
-52 -40 -55 8 -8 82 41 106 72 11 15 21 36 21 48 0 33 13 45 61 59 26 8 44 19
44 27 0 12 -14 15 -67 13 -77 -1 -139 -26 -240 -97 -97 -67 -124 -78 -169 -71
-21 4 -39 10 -39 15 0 9 25 20 45 20 20 0 69 20 63 25 -12 13 -174 11 -205 -1
-48 -20 -65 -18 -61 8 4 31 36 44 157 65 121 21 147 43 52 43 -34 0 -61 4 -61
10 0 26 229 190 340 243 107 51 190 105 190 123 0 18 -14 18 -57 -2 -56 -27
-64 -5 -21 58 70 106 71 108 59 135 -16 34 -14 128 4 170 17 41 11 58 -11 28
-20 -27 -34 -82 -34 -138 0 -26 -7 -74 -17 -107 -14 -51 -26 -70 -84 -127 -87
-87 -181 -145 -229 -141 l-35 3 1 71 c0 51 6 82 22 114 24 49 23 57 -7 41 -32
-18 -49 -60 -60 -151 -6 -46 -17 -93 -25 -105 -18 -27 -106 -87 -120 -82 -11
4 -10 93 0 130 3 9 1 17 -5 17 -10 0 -21 -33 -36 -109 -5 -23 -16 -38 -37 -50
-17 -9 -56 -35 -88 -58 -56 -42 -90 -54 -90 -33 0 44 128 268 190 335 87 92
89 125 10 193 -47 40 -50 46 -50 90 0 66 25 174 54 237 13 30 28 79 31 109 6
47 13 61 44 89 90 83 138 161 88 141 -11 -4 -16 6 -21 40 -4 25 -11 46 -15 46
-5 0 -11 -32 -13 -71 -5 -65 -8 -73 -44 -110 -46 -47 -70 -47 -97 -2 -23 39
-13 61 39 92 53 32 36 35 -30 6 -31 -14 -59 -25 -61 -25 -3 0 -13 17 -24 38
-11 20 -38 62 -61 92 -51 68 -50 85 19 226 62 129 69 159 42 176 -13 8 -21 23
-21 40 0 16 -4 28 -10 28 -20 0 -33 -49 -40 -147 -6 -92 -9 -107 -36 -145 -16
-23 -34 -43 -41 -45 -29 -10 -111 199 -120 303 -4 46 -10 73 -17 71 -14 -5
-27 -66 -20 -99 8 -40 -12 -42 -36 -3 -24 39 -28 84 -11 128 17 43 -12 34 -33
-10 l-18 -38 -30 35 c-26 30 -29 41 -24 78 3 23 1 42 -4 42 -5 0 -22 -21 -37
-47 -41 -71 -115 -173 -126 -173 -5 0 -7 14 -5 31 4 25 1 33 -15 37 -15 4 -18
11 -13 35 7 33 42 77 62 77 18 0 60 37 51 46 -4 5 -23 0 -42 -11 -20 -10 -37
-16 -39 -14 -3 2 0 26 6 52 5 27 7 51 4 54 -12 12 -35 -8 -41 -37 -4 -17 -29
-54 -56 -81 l-48 -51 -22 36 c-22 38 -44 49 -34 16 11 -34 23 -124 18 -136
-11 -28 17 -21 46 11 17 19 33 35 36 35 3 0 5 -33 3 -72 -2 -59 -6 -73 -20
-76 -12 -2 -17 5 -20 25 -4 41 -22 30 -26 -16 -2 -23 -11 -46 -23 -56 -10 -10
-19 -23 -19 -30 0 -7 -8 -20 -19 -29 -27 -25 -31 -4 -15 74 19 89 17 120 -6
155 -38 58 -22 114 46 156 38 23 33 39 -13 39 -28 0 -28 1 -3 50 25 49 25 60
0 60 -13 0 -24 10 -30 25 -17 46 -28 26 -35 -65 -7 -87 -25 -136 -25 -67 0 43
-7 49 -35 31 -22 -14 -27 -12 -90 36 -77 58 -120 82 -141 78 -20 -4 34 -69 90
-107 42 -29 53 -47 113 -180 21 -48 28 -79 27 -125 0 -76 -25 -129 -57 -124
-34 5 -32 35 8 95 20 30 35 59 33 65 -2 5 -27 -9 -56 -31 l-52 -42 -11 28
c-17 45 -14 75 15 130 45 90 24 111 -30 30 l-28 -42 -10 35 c-5 19 -9 65 -9
102 1 63 0 67 -17 58 -10 -5 -20 -15 -23 -22 -8 -22 -19 0 -31 59 -8 41 -17
59 -29 61 -14 3 -17 -4 -17 -40 0 -24 5 -61 10 -82 7 -32 5 -47 -11 -78 -25
-50 -44 -56 -75 -28 -31 30 -30 52 3 149 27 82 26 129 -2 100 -8 -8 -33 -66
-54 -129 -36 -105 -40 -111 -40 -72 -1 63 -30 54 -56 -18 l-20 -55 -5 50 c-4
36 -9 50 -20 50 -11 0 -14 9 -12 32 4 42 -6 73 -24 73 -31 0 -11 19 24 22 29
2 37 7 37 23 0 23 -14 23 -122 4 -51 -9 -62 -15 -65 -33 -3 -21 -13 -23 -53
-11 -15 4 -24 -2 -38 -26 -16 -29 -16 -34 -3 -41 12 -7 16 -25 16 -68 0 -64
-15 -88 -25 -40 -9 43 -23 46 -43 10 -35 -64 -36 -65 -71 -50 -17 7 -45 30
-62 51 -17 22 -40 44 -50 50 -31 16 -35 -16 -7 -59 23 -36 24 -38 9 -74 -9
-21 -19 -38 -23 -38 -3 0 -25 54 -48 120 -43 120 -63 146 -76 95 -3 -14 -1
-45 5 -70 13 -53 4 -155 -14 -155 -22 0 -33 24 -40 85 -9 89 -14 105 -30 105
-9 0 -16 -14 -20 -37 -3 -21 -9 -54 -13 -73 l-8 -35 -38 50 c-21 28 -43 50
-49 50 -7 0 -13 -15 -15 -32 -2 -18 -7 -33 -11 -33 -5 0 -25 25 -45 55 -20 30
-40 55 -44 55 -23 0 -19 -19 18 -86 l40 -73 -25 -3 c-38 -5 -35 -19 13 -53
l42 -30 -6 -90 c-8 -130 -11 -143 -46 -161 -31 -16 -31 -16 -24 8 4 12 9 44
12 69 7 53 -10 76 -26 35 -5 -14 -14 -26 -19 -26 -23 0 -33 -59 -23 -137 13
-96 5 -147 -25 -151 -32 -5 -50 22 -57 88 -7 58 -5 68 28 136 38 80 52 134 42
160 -10 25 -36 -2 -36 -38 0 -32 -27 -104 -36 -95 -3 3 -1 14 5 25 20 38 7 86
-14 52 -10 -17 -25 -11 -25 9 0 26 -10 51 -20 51 -5 0 -13 -15 -19 -33 -8 -24
-7 -64 4 -157 8 -68 12 -126 10 -128 -2 -2 -11 12 -19 32 -23 54 -39 46 -34
-16 l4 -53 -99 3 c-104 4 -131 -4 -107 -33 8 -10 30 -15 65 -15 52 0 154 -16
163 -25 3 -3 9 -56 13 -118 7 -94 23 -225 32 -257 1 -4 -2 -10 -8 -11 -14 -6
-62 70 -76 119 -7 24 -10 72 -7 112 3 39 2 73 -3 76 -11 6 -36 -43 -44 -89 -4
-20 -12 -37 -17 -37 -15 0 -78 67 -116 124 -22 32 -37 45 -43 39 -21 -21 10
-89 71 -159 74 -85 159 -201 171 -233 17 -42 -4 -46 -73 -14 -35 16 -78 42
-95 57 -36 31 -44 66 -15 66 10 0 27 6 38 14 21 16 18 18 -38 30 -20 5 -32 18
-46 50 -32 72 -67 78 -38 6 21 -52 20 -57 -4 -35 -18 16 -20 16 -26 2 -8 -22
20 -102 50 -141 13 -17 65 -55 114 -85 92 -55 118 -81 82 -81 -37 0 -120 38
-171 79 -72 57 -96 55 -65 -6 23 -43 65 -193 56 -198 -4 -2 -29 22 -54 55 -43
55 -76 76 -76 50 0 -6 -9 -23 -20 -38 -19 -26 -19 -30 -5 -92 9 -36 29 -114
47 -175 l31 -110 116 -113 c129 -126 213 -188 269 -198 20 -3 52 -15 69 -25
33 -18 33 -18 30 4 -2 20 2 22 41 21 42 -1 48 -5 171 -130 70 -71 159 -158
197 -194 71 -67 144 -184 126 -202 -13 -13 -150 76 -240 154 -48 41 -80 78
-93 107 -20 44 -133 181 -150 181 -16 0 -10 -18 17 -49 l25 -30 -31 -40 c-40
-49 -32 -68 15 -40 27 16 38 18 54 10 18 -10 41 -65 41 -98 0 -7 18 -22 40
-33 50 -26 51 -40 1 -40 -80 0 -121 29 -121 84 0 35 -17 33 -38 -4 -14 -25
-23 -30 -54 -30 -51 0 -73 25 -82 90 -4 29 -14 66 -22 81 -7 15 -14 39 -14 54
0 28 -11 32 -29 11 -6 -7 -32 -19 -56 -26 -40 -11 -48 -11 -63 4 -25 22 -27
21 -27 -21 0 -28 -5 -38 -18 -41 -27 -5 -43 13 -71 83 l-26 65 24 77 c34 110
36 125 23 120 -6 -2 -21 -28 -32 -58 -17 -45 -25 -55 -48 -57 -35 -4 -35 -23
-1 -125 30 -90 57 -127 108 -145 34 -13 42 -12 101 14 78 33 95 25 95 -42 0
-50 -11 -56 -29 -17 -10 22 -14 25 -21 12 -5 -8 -10 -28 -12 -43 -3 -28 0 -30
52 -43 66 -17 78 -27 60 -48 -21 -25 -8 -26 52 -4 l55 21 69 -28 c37 -15 99
-35 136 -45 80 -20 132 -49 214 -121 159 -138 294 -245 371 -293 66 -41 126
-120 225 -294 l84 -148 -18 -109 c-10 -60 -20 -115 -23 -122 -2 -7 -9 -103
-15 -215 -12 -244 -14 -251 -43 -243 -64 17 -571 128 -687 150 -520 98 -793
129 -1140 130 -384 1 -539 -33 -940 -207 -365 -158 -466 -199 -595 -242 -282
-95 -541 -146 -935 -187 -192 -20 -1045 -16 -1320 5 -548 44 -964 108 -1342
208 l-116 31 -4 72 c-4 61 -1 79 24 134 18 41 35 66 48 69 22 6 23 10 14 76
-5 37 -11 47 -28 49 -36 5 -25 39 22 71 42 29 58 63 25 53 -10 -2 -28 -7 -40
-11 -45 -13 -32 29 18 55 44 24 79 153 60 222 -11 38 -9 51 13 117 39 113 42
157 14 213 -24 45 -24 47 -7 80 21 38 23 52 9 43 -20 -13 -9 8 19 34 28 26 58
105 68 183 5 31 -1 49 -36 106 -22 37 -41 73 -41 80 0 6 12 40 26 75 l26 63
-26 52 c-35 69 -34 107 4 142 32 29 40 73 20 110 -7 13 -6 21 5 30 22 18 18
49 -10 95 -33 55 -32 89 5 122 37 33 37 44 2 84 l-29 32 16 92 c14 74 15 103
6 153 -14 73 -20 82 -40 56 -24 -31 -9 188 17 239 l19 38 -51 60 c-33 37 -60
59 -73 59 -15 0 -36 19 -64 59 -62 84 -67 104 -46 165 21 64 21 176 0 234 -13
35 -14 53 -6 100 10 51 7 131 -8 204 -4 23 -1 30 21 40 l27 12 -98 98 -98 98
-3 118 c-3 116 -4 117 -36 152 -56 60 -76 92 -76 120 0 36 8 42 36 23 22 -14
25 -14 44 8 35 43 45 78 33 118 -27 91 -99 261 -111 261 -7 0 -10 5 -7 10 4 6
10 8 15 5 10 -6 40 33 40 52 0 22 -16 14 -29 -13 l-11 -26 -19 24 c-24 29 -19
38 22 38 25 0 37 7 56 35 21 31 22 37 10 54 -8 10 -58 76 -112 146 -53 71 -95
130 -92 133 2 2 18 -7 35 -22 76 -64 66 -11 -16 91 -45 55 -94 142 -94 166 0
7 -13 28 -30 47 -16 19 -29 41 -30 48 0 15 42 16 58 0 17 -17 19 -9 12 57 -4
33 -8 48 -9 33 -2 -43 -18 -33 -39 25 -35 95 -36 98 -13 113 17 12 21 25 21
67 -1 71 -39 182 -62 181 -14 -1 -18 6 -18 36 0 52 8 68 41 86 16 8 29 13 29
12 0 -2 -4 -19 -10 -38 l-10 -34 27 26 c22 22 24 30 14 42 -10 11 -10 20 -1
36 17 32 5 83 -23 95 -19 9 -22 17 -22 75 0 37 5 74 13 87 7 12 12 27 11 35
-3 16 18 97 31 120 6 10 10 32 10 50 0 38 39 126 64 147 14 12 25 12 65 2 40
-10 60 -9 122 5 91 20 118 32 98 45 -9 6 10 9 51 10 37 0 97 10 140 24 86 26
100 29 100 16z m-680 -197 c0 -16 -4 -23 -12 -18 -6 4 -17 -1 -25 -11 -7 -11
-13 -14 -13 -8 0 11 38 63 46 63 2 0 4 -12 4 -26z m-11 -82 c-10 -2 -19 -9
-19 -15 0 -11 -96 -117 -106 -117 -4 0 64 140 73 150 2 2 8 -2 12 -9 11 -17
31 -6 31 17 0 13 2 13 14 -4 13 -17 13 -19 -5 -22z m-19 -72 c0 -5 -2 -10 -4
-10 -3 0 -8 5 -11 10 -3 6 -1 10 4 10 6 0 11 -4 11 -10z m-22 -650 c0 -34 -2
-40 -8 -25 -5 11 -8 45 -8 75 0 45 2 50 8 25 4 -16 8 -50 8 -75z m12 -99 c0
-11 -4 -9 -14 4 -8 11 -12 24 -9 28 7 11 23 -12 23 -32z m7580 -1817 c0 -19
-6 -26 -31 -31 -28 -5 -31 -9 -26 -37 6 -39 0 -53 -25 -67 -21 -11 -21 -10
-15 50 4 34 17 85 29 113 l22 51 23 -27 c13 -15 23 -38 23 -52z m424 -124 c22
-55 21 -68 -16 -146 -34 -75 -63 -114 -86 -114 -21 0 -72 59 -72 84 0 11 29
62 65 111 35 50 65 93 65 98 0 4 6 7 14 7 8 0 21 -18 30 -40z m-278 -46 c-3
-8 -10 -14 -16 -14 -14 0 -13 27 2 53 l13 22 3 -23 c2 -13 1 -30 -2 -38z m112
8 c2 -24 -4 -43 -23 -68 -14 -19 -30 -34 -36 -34 -12 0 -11 56 2 103 8 31 14
38 32 35 17 -2 23 -11 25 -36z m-441 -73 c26 -108 27 -119 13 -119 -11 0 -14
7 -24 53 -5 20 -12 27 -30 27 -13 0 -29 7 -36 15 -8 9 -9 15 -2 15 6 0 14 -5
17 -10 10 -16 25 -1 18 18 -3 9 -13 25 -21 34 -13 16 -13 20 2 43 10 15 23 24
29 22 7 -2 22 -46 34 -98z m213 49 c0 -15 -28 -9 -34 8 -11 30 -6 37 14 19 11
-10 20 -22 20 -27z m-739 -20 c7 -13 6 -18 -4 -18 -21 0 -37 22 -37 50 1 24 1
25 16 5 9 -11 20 -28 25 -37z m648 -24 c-30 -36 -41 5 -11 46 l17 25 3 -28 c2
-16 -2 -35 -9 -43z m-423 -1 c16 -37 23 -67 19 -82 -9 -34 -21 -16 -39 55 -27
103 -19 114 20 27z m1666 -21 c26 -46 27 -50 10 -65 -26 -24 -113 -67 -123
-62 -4 3 -13 -5 -20 -17 -22 -41 -86 -85 -101 -70 -17 17 -1 56 46 114 24 29
54 77 66 106 13 29 30 56 38 61 23 13 53 -11 84 -67z m-1132 -69 c-12 -84 -36
-133 -59 -119 -23 15 -52 87 -49 124 2 20 8 36 13 34 6 -2 9 -15 8 -30 -4 -40
4 -57 21 -43 7 6 21 8 31 5 15 -6 17 -3 11 22 -19 87 -19 90 6 101 31 14 33 6
18 -94z m-383 55 c13 -12 23 -29 23 -37 -1 -17 -27 -58 -33 -50 -21 29 -36
109 -20 109 4 0 17 -10 30 -22z m-213 -43 c13 -26 21 -66 23 -119 4 -96 -8
-78 -26 39 -7 44 -20 91 -28 104 -12 18 -12 22 -1 19 7 -2 22 -22 32 -43z
m743 -42 c85 -107 133 -173 133 -185 0 -5 -21 -8 -47 -6 l-48 3 -6 67 c-3 38
-9 71 -12 75 -4 3 -16 -2 -26 -11 -15 -14 -24 -15 -40 -6 -29 15 -26 1 9 -40
22 -25 30 -45 30 -72 0 -35 -2 -38 -41 -48 -59 -16 -73 -11 -77 30 -4 34 25
257 34 272 10 16 23 6 91 -79z m-859 55 c18 -16 15 -34 -11 -51 -21 -14 -23
-13 -39 24 -9 21 -13 40 -10 43 7 7 42 -3 60 -16z m1137 13 c3 -6 10 -36 16
-68 5 -32 17 -79 26 -104 16 -48 14 -81 -10 -113 -21 -29 -49 -7 -87 66 l-32
63 32 83 c30 78 42 94 55 73z m773 -74 c43 -65 20 -112 -28 -56 -36 42 -37 26
-6 -60 28 -78 43 -176 28 -185 -15 -9 -25 22 -31 109 l-6 80 -38 6 c-66 11
-67 23 -7 84 30 30 57 55 60 55 3 0 15 -15 28 -33z m-1883 3 c3 -5 1 -10 -4
-10 -6 0 -11 5 -11 10 0 6 2 10 4 10 3 0 8 -4 11 -10z m236 -95 c23 -95 24
-97 4 -111 -10 -8 -29 -14 -42 -14 -22 0 -23 3 -23 84 0 80 14 151 29 142 4
-3 18 -48 32 -101z m158 79 c16 -35 27 -144 14 -144 -19 0 -33 50 -27 94 4 27
2 46 -5 50 -13 8 -15 26 -3 26 5 0 14 -12 21 -26z m1145 -21 c-9 -21 -23 -67
-31 -102 -8 -36 -32 -108 -54 -160 -24 -57 -50 -145 -64 -217 -14 -67 -29
-135 -35 -150 -18 -47 -61 -116 -68 -109 -7 6 -13 62 -29 230 -4 39 -7 108 -7
155 -1 72 2 90 21 116 12 16 23 47 25 69 4 44 28 66 56 49 25 -16 26 -57 3
-110 -22 -49 -28 -109 -11 -119 6 -3 10 -21 10 -38 1 -31 1 -31 16 -12 10 13
13 31 9 52 -4 25 3 53 30 113 19 45 35 92 35 107 0 27 41 117 67 146 9 9 22
17 30 17 11 0 10 -7 -3 -37z m-1630 -34 c8 -47 -2 -111 -15 -103 -5 3 -9 39
-9 80 0 80 13 92 24 23z m66 22 c0 -6 -4 -13 -10 -16 -5 -3 -10 1 -10 9 0 9 5
16 10 16 6 0 10 -4 10 -9z m364 -18 c-10 -42 -24 -52 -24 -17 0 31 6 44 22 44
5 0 5 -12 2 -27z m201 -89 c16 -31 30 -78 33 -106 4 -47 4 -49 -14 -39 -11 6
-35 25 -56 43 -35 32 -36 34 -40 121 l-4 87 26 -25 c15 -15 40 -51 55 -81z
m1469 -7 c24 -51 63 -114 86 -140 24 -26 40 -50 37 -54 -7 -7 -89 40 -107 61
-20 25 -48 19 -65 -14 -29 -57 -37 -36 -33 83 3 97 16 157 33 157 3 0 25 -42
49 -93z m-1989 22 c7 -42 -2 -58 -32 -59 -25 0 -12 -16 30 -35 54 -25 62 -62
21 -94 -15 -11 -31 -21 -36 -21 -5 0 -18 21 -29 46 -24 58 -37 51 -16 -9 13
-37 13 -48 1 -76 -18 -43 -18 -44 6 -36 15 5 22 0 31 -22 28 -72 57 -118 121
-194 93 -111 94 -113 60 -139 l-27 -22 -3 39 c-1 21 -5 49 -8 62 -5 23 -5 23
-25 5 -18 -16 -20 -26 -15 -66 7 -47 6 -48 -19 -48 -20 0 -26 -4 -23 -17 4
-25 41 -28 98 -9 71 23 122 21 146 -6 31 -35 49 -114 49 -208 -1 -75 -5 -94
-34 -157 -19 -40 -38 -73 -42 -73 -14 0 -36 42 -52 97 -9 28 -38 82 -65 120
-27 37 -68 102 -92 143 -37 66 -41 81 -37 122 2 30 14 62 32 88 15 22 25 43
22 46 -9 10 -26 -5 -53 -47 -14 -22 -30 -39 -37 -36 -7 2 -17 26 -23 53 -7 27
-23 92 -37 144 -33 126 -42 214 -27 270 12 44 89 180 102 180 3 0 9 -19 13
-41z m1711 -15 c20 -33 28 -63 30 -103 3 -65 13 -121 23 -121 4 0 12 5 19 12
9 9 18 -2 38 -48 14 -32 50 -108 79 -169 50 -102 59 -129 56 -163 -3 -35 -51
48 -51 89 0 9 -6 24 -13 31 -7 7 -17 22 -22 33 -8 19 -9 19 -12 -3 -5 -27 -35
-48 -84 -56 -30 -5 -40 -2 -63 21 -46 46 -34 57 82 79 36 7 25 24 -15 24 -51
0 -68 12 -55 37 6 11 18 25 26 33 18 14 21 46 5 55 -6 4 -17 -1 -25 -11 -13
-18 -15 -18 -39 9 -14 15 -25 37 -25 49 0 16 -5 19 -21 15 -15 -4 -23 0 -26
14 -7 27 -20 24 -37 -10 -16 -30 -70 -81 -87 -81 -30 0 9 128 62 202 18 25
113 108 124 108 3 0 16 -21 31 -46z m-1352 -34 c30 -11 34 -30 7 -30 -30 0
-51 11 -51 26 0 17 10 17 44 4z m-548 -117 c15 -116 17 -183 5 -183 -5 0 -26
21 -46 46 -37 45 -38 47 -32 114 7 81 32 149 49 132 6 -6 17 -55 24 -109z
m1192 81 c28 -20 54 -68 46 -88 -3 -9 -30 -31 -60 -50 -51 -32 -58 -33 -124
-28 -57 4 -70 2 -70 -10 0 -8 10 -20 23 -26 21 -10 21 -11 2 -11 -33 -1 -62
26 -78 72 -26 77 -18 83 129 91 70 3 130 8 132 11 2 2 1 9 -3 15 -5 9 -29 10
-81 5 -51 -5 -74 -3 -74 4 0 6 12 11 28 12 15 0 36 4 47 9 31 13 58 11 83 -6z
m-560 -84 c47 -34 51 -47 22 -81 l-19 -24 -1 27 c0 42 -10 60 -26 47 -15 -12
-34 -4 -34 16 0 7 -7 15 -15 19 -23 9 -18 26 8 26 13 0 43 -14 65 -30z m-181
-7 c2 -6 -19 -19 -46 -28 -46 -15 -53 -15 -73 -1 l-22 16 24 1 c14 0 41 7 60
14 39 15 52 14 57 -2z m-166 -34 c9 -13 29 -22 59 -26 25 -3 53 -10 63 -15 33
-17 15 -102 -25 -117 -35 -13 -48 -2 -48 37 l0 36 -22 -21 c-20 -21 -20 -24
-7 -60 15 -37 16 -38 65 -38 45 0 49 -2 52 -25 5 -49 13 -71 22 -65 6 3 10 19
10 36 0 29 15 48 64 82 37 25 23 40 -20 22 -43 -18 -50 -7 -40 59 11 72 27 75
72 15 73 -97 72 -92 41 -136 -15 -22 -49 -64 -76 -94 l-48 -54 -54 42 c-93 72
-139 150 -139 240 l-1 58 -14 -34 c-13 -28 -17 -31 -30 -21 -23 19 -18 46 16
74 37 31 43 32 60 5z m1955 -21 c71 -53 185 -181 172 -193 -2 -3 -20 9 -39 25
-35 30 -59 38 -59 20 0 -6 32 -44 70 -86 39 -41 70 -84 70 -94 0 -22 -67 -211
-79 -223 -5 -5 -16 2 -25 14 -21 31 -21 127 0 157 9 13 13 26 9 30 -7 7 -39
-27 -48 -51 -7 -17 -56 43 -57 69 0 12 14 38 30 59 41 52 38 63 -9 26 -40 -32
-81 -41 -81 -18 0 6 9 52 20 101 11 50 20 101 20 114 0 21 -2 23 -15 12 -19
-16 -23 -12 -31 28 -8 39 9 42 52 10z m-951 -60 c10 -40 20 -107 22 -149 5
-69 3 -78 -14 -87 -11 -6 -41 -29 -68 -51 -27 -23 -53 -41 -57 -41 -13 0 -9
75 5 93 6 10 25 21 41 25 36 10 44 28 16 35 -11 3 -20 12 -20 21 0 27 -16 18
-44 -24 -14 -22 -31 -40 -37 -40 -29 0 45 225 87 267 39 39 51 30 69 -49z
m-555 39 c0 -7 -13 -26 -30 -42 -27 -26 -30 -27 -30 -9 0 11 7 30 16 42 17 24
44 30 44 9z m1102 -4 c9 -10 25 -37 36 -59 20 -39 20 -43 4 -56 -31 -27 -76
-49 -152 -73 -67 -21 -76 -22 -87 -8 -15 20 7 96 38 129 29 31 52 30 93 -1 41
-31 58 -32 54 -2 -2 16 -11 23 -30 25 -32 4 -35 17 -11 44 20 23 36 23 55 1z
m296 -19 c2 -10 13 -29 24 -40 14 -16 18 -33 16 -60 -7 -83 -50 -32 -64 76 -6
43 -4 52 7 48 8 -3 16 -13 17 -24z m-1338 -46 c40 -64 6 -121 -47 -82 -36 27
-39 53 -13 87 28 35 36 34 60 -5z m-964 -60 c15 -29 50 -84 79 -123 29 -38 60
-82 69 -97 17 -26 17 -27 -11 -41 -46 -23 -134 -50 -141 -42 -14 14 -30 144
-31 248 -1 59 1 107 4 107 2 0 17 -24 31 -52z m1254 42 c0 -6 -7 -27 -15 -47
-12 -29 -18 -33 -29 -24 -10 9 -16 9 -21 1 -10 -16 2 -56 31 -100 27 -41 68
-140 60 -147 -3 -3 -19 23 -36 57 -21 41 -35 59 -41 53 -9 -9 0 -40 36 -125 5
-14 2 -18 -13 -18 -24 0 -37 -16 -22 -25 17 -11 11 -25 -14 -35 -14 -5 -26
-19 -28 -31 -4 -28 -43 -56 -51 -36 -6 17 34 101 64 133 27 29 18 42 -16 24
-41 -22 -76 -78 -92 -144 -23 -101 -62 -147 -133 -157 -39 -6 -37 29 6 92 20
30 43 72 52 94 8 22 24 52 34 67 10 14 18 35 18 46 0 10 14 39 32 63 17 24 46
79 64 123 17 44 46 95 63 113 32 33 51 42 51 23z m16 -87 c-11 -11 -17 4 -9
23 7 18 8 18 11 1 2 -10 1 -21 -2 -24z m-427 -36 c32 -66 28 -104 -20 -170
-43 -61 -67 -71 -101 -40 -24 22 -24 85 2 137 22 45 77 116 90 116 4 0 18 -19
29 -43z m1192 -49 c58 -48 69 -65 43 -70 -12 -2 5 -22 60 -72 96 -86 121 -128
136 -231 19 -134 31 -187 63 -265 26 -66 30 -87 30 -175 1 -138 -24 -212 -101
-299 -31 -35 -67 -76 -79 -90 -22 -26 -23 -26 -48 -10 l-25 16 2 -39 c2 -50
-1 -54 -65 -96 -30 -20 -59 -43 -66 -51 -22 -26 -28 -19 -40 44 -11 54 -35
107 -115 255 -31 57 -30 108 3 173 43 85 101 112 236 112 157 0 112 19 -52 22
-144 3 -148 4 -151 25 -3 17 5 26 33 38 26 10 35 20 32 30 -10 24 40 55 89 55
42 0 44 1 44 31 0 27 6 33 56 56 36 16 52 28 44 33 -12 7 -58 -1 -80 -15 -22
-13 -22 30 -1 103 56 192 58 202 42 202 -5 0 -19 -29 -31 -65 -12 -36 -27 -65
-34 -65 -15 0 -71 76 -91 124 -21 50 -19 84 10 138 30 57 31 62 6 48 -38 -20
-53 -13 -46 21 4 17 3 30 -1 27 -51 -23 -61 -34 -82 -84 -12 -30 -22 -64 -22
-75 0 -11 -7 -22 -15 -25 -16 -7 -82 13 -90 26 -11 19 44 107 83 132 43 29
115 57 149 58 12 0 46 -19 74 -42z m196 -30 c6 -7 20 -39 32 -70 23 -64 10
-80 -17 -20 l-17 37 -3 -32 c-2 -18 -7 -33 -11 -33 -15 0 -62 58 -52 64 7 4 7
15 1 30 -5 13 -6 27 -3 30 11 11 60 6 70 -6z m-733 -77 c17 -77 21 -181 7
-181 -12 0 -89 88 -106 121 -13 24 -12 29 26 70 21 24 39 47 39 51 0 4 4 8 9
8 5 0 17 -31 25 -69z m428 3 c-6 -45 -6 -91 2 -116 11 -36 -5 -36 -26 0 -27
46 -33 105 -13 126 21 21 41 16 37 -10z m459 -102 c6 -31 22 -70 34 -87 27
-36 39 -71 27 -79 -5 -3 -27 8 -47 24 -21 17 -40 28 -43 25 -11 -11 37 -50 95
-77 68 -30 81 -45 113 -127 l21 -55 -28 -54 c-29 -55 -69 -89 -95 -80 -8 3
-38 58 -67 123 -53 117 -72 191 -86 340 -6 63 -5 73 15 98 29 37 45 23 61 -51z
m-540 -22 c23 0 30 -11 18 -27 -9 -10 -8 -18 6 -32 11 -13 14 -27 10 -40 -8
-27 7 -27 30 -1 29 32 59 25 96 -21 34 -43 37 -62 25 -141 -5 -36 -15 -53 -41
-75 -79 -66 -114 -93 -123 -93 -6 0 -13 22 -17 50 -5 37 -3 55 9 72 22 31 22
72 0 64 -10 -4 -25 1 -36 10 -24 22 -30 15 -19 -24 11 -36 3 -142 -10 -142 -5
0 -9 9 -9 19 0 11 -5 32 -11 48 l-11 28 -14 -32 c-8 -18 -20 -33 -27 -33 -7 0
-18 -5 -25 -12 -8 -8 -1 -18 31 -38 23 -14 55 -45 71 -68 32 -47 32 -60 -5
-157 -25 -68 -58 -105 -93 -105 -21 0 -26 6 -30 33 -12 78 -19 186 -15 232 6
79 4 281 -5 380 l-8 90 31 37 32 37 62 -30 c34 -16 69 -29 78 -29z m-503 6 c3
-15 1 -16 -17 -6 -12 6 -19 16 -15 21 9 15 28 5 32 -15z m-1180 -15 c11 -7 11
-14 -3 -42 -27 -53 -36 -61 -51 -48 -10 8 -16 3 -28 -24 -15 -37 -82 -117 -98
-117 -12 0 -58 100 -58 128 0 34 42 66 117 90 75 23 101 26 121 13z m1130 -55
c5 -41 -11 -53 -42 -32 -30 19 -32 29 -10 51 24 23 48 15 52 -19z m98 -11 c69
-52 68 -98 -1 -75 -27 9 -41 21 -51 46 -8 18 -14 38 -14 44 0 18 32 11 66 -15z
m-1752 -6 c-3 -5 -10 -7 -15 -3 -5 3 -7 10 -3 15 3 5 10 7 15 3 5 -3 7 -10 3
-15z m633 -42 c48 -71 153 -315 214 -497 38 -112 43 -135 43 -220 0 -107 -8
-150 -28 -150 -15 0 -202 192 -267 272 -60 76 -61 116 -6 333 25 99 43 183 41
187 -11 18 -26 5 -45 -39 l-20 -47 -19 29 c-41 62 -43 79 -20 126 45 88 52 88
107 6z m-482 -15 c45 -27 63 -68 75 -172 9 -72 20 -113 46 -167 19 -40 34 -77
34 -81 0 -5 23 -35 50 -66 55 -62 57 -66 36 -66 -15 0 -72 57 -180 180 -49 55
-68 84 -73 113 -5 36 -8 38 -34 32 -41 -9 -61 35 -67 152 -6 121 -3 128 45
108 21 -9 51 -24 68 -33z m1465 2 c41 -16 51 -39 28 -62 -19 -19 -1 -25 24 -8
28 20 107 21 151 2 49 -20 87 -70 87 -114 0 -53 -11 -67 -41 -52 -41 21 -69
53 -69 77 0 31 -11 29 -42 -6 -15 -16 -32 -31 -39 -33 -25 -8 3 -28 41 -28 57
0 83 -29 119 -134 34 -96 39 -146 17 -146 -7 0 -33 7 -56 15 -87 31 -90 14 -5
-34 49 -28 70 -51 46 -51 -5 0 -56 23 -113 50 -113 54 -106 47 -152 163 -28
69 -49 28 -27 -51 12 -39 4 -41 -26 -4 l-22 27 -1 -30 c0 -30 -2 -31 -36 -27
-51 6 -41 -17 15 -36 23 -8 47 -22 53 -31 9 -15 17 -16 47 -8 32 8 46 5 122
-32 91 -44 115 -70 103 -117 -6 -25 -6 -26 39 -19 39 6 53 3 107 -26 34 -18
75 -49 91 -68 52 -64 99 -224 80 -274 -13 -33 -32 -34 -71 -5 -42 31 -46 18
-11 -40 37 -59 37 -66 9 -123 -33 -63 -263 -390 -302 -428 l-33 -32 -30 73
c-16 40 -51 104 -76 141 -54 78 -61 101 -54 163 3 34 13 55 37 79 40 41 95 55
215 55 46 0 96 5 112 11 26 10 27 11 9 21 -12 7 -66 8 -155 4 l-136 -6 30 25
c17 14 50 32 75 41 83 30 170 73 170 83 0 14 5 15 -76 -13 -97 -33 -134 -40
-134 -25 0 7 22 47 50 91 27 43 52 89 56 103 10 41 -19 30 -55 -20 -18 -25
-36 -45 -41 -45 -4 0 -1 27 7 60 17 67 13 82 -15 57 -24 -22 -34 -21 -76 4
l-36 21 0 -25 c0 -16 10 -34 26 -46 22 -17 26 -30 30 -85 l4 -65 -59 -68 c-32
-38 -69 -90 -81 -116 -25 -52 -47 -63 -108 -53 -72 12 -110 27 -124 49 -35 52
-126 276 -132 323 -3 28 -18 84 -31 123 -33 94 -32 131 11 269 58 190 63 201
97 219 18 9 54 36 81 60 47 42 50 43 97 37 38 -5 57 -2 93 16 48 23 63 47 24
36 -59 -16 -98 -18 -98 -6 0 16 93 110 108 110 7 0 30 -7 52 -16z m-1690 -97
c29 -43 96 -126 148 -185 127 -144 128 -146 109 -176 -16 -24 -16 -24 21 -31
28 -5 52 -22 100 -72 34 -36 62 -70 62 -74 0 -17 -81 -9 -123 12 -59 31 -165
130 -236 222 -63 82 -100 163 -106 232 -3 35 -16 84 -41 150 -11 30 6 10 66
-78z m586 -42 c37 -64 41 -110 15 -187 -12 -36 -28 -74 -36 -84 -15 -18 -17
-17 -49 19 -36 40 -56 100 -56 167 0 34 7 48 41 85 23 25 45 45 50 45 4 0 20
-20 35 -45z m2610 -541 c-22 -16 -70 -19 -61 -4 7 11 67 29 75 23 3 -3 -4 -11
-14 -19z m-106 -41 c0 -12 -38 -73 -72 -115 -55 -70 -76 -34 -29 47 24 41 101
93 101 68z m-166 -125 c-9 -31 -30 -72 -69 -138 -18 -30 -36 -71 -40 -90 -13
-64 -54 -91 -173 -111 -37 -6 -89 -20 -115 -30 -50 -20 -87 -24 -87 -11 0 20
311 287 407 348 28 19 54 38 58 44 12 19 26 10 19 -12z m296 12 c0 -5 -2 -10
-4 -10 -3 0 -8 5 -11 10 -3 6 -1 10 4 10 6 0 11 -4 11 -10z m-70 -15 c23 -8
62 -15 86 -15 24 0 44 -4 44 -9 0 -5 -21 -28 -47 -51 -37 -32 -49 -38 -51 -26
-4 18 -20 20 -57 6 -38 -14 -47 -4 -29 31 8 17 13 33 10 36 -10 11 -35 -19
-72 -84 -42 -75 -145 -190 -162 -179 -36 22 106 235 193 287 36 23 32 23 85 4z
m1974 -137 c-3 -13 -20 -54 -37 -92 -33 -74 -33 -74 -50 13 -6 27 -4 32 9 27
17 -6 64 38 64 60 0 8 5 14 11 14 6 0 8 -9 3 -22z m-1964 -2 c0 -24 -117 -106
-150 -106 -14 0 11 49 36 72 46 41 114 62 114 34z m-1990 -345 c68 -68 85
-140 22 -95 -31 23 -92 109 -92 130 0 25 20 15 70 -35z m1409 -8 c-15 -17 -63
-43 -80 -43 -17 0 30 50 56 60 27 10 39 2 24 -17z m-349 -213 c-28 -22 -40
-25 -40 -10 0 11 30 29 50 29 10 1 6 -6 -10 -19z m-7713 -552 c-3 -8 -6 -5 -6
6 -1 11 2 17 5 13 3 -3 4 -12 1 -19z m9947 -1091 c15 -11 16 -15 3 -25 -21
-18 -116 -33 -156 -25 -36 6 -35 7 44 34 97 33 87 32 109 16z m-10670 -158
l49 -12 -24 -18 c-34 -26 -64 -23 -88 7 -26 33 -27 47 -3 40 9 -3 39 -10 66
-17z m8664 -836 c-10 -2 -26 -2 -35 0 -10 3 -2 5 17 5 19 0 27 -2 18 -5z"/>
<path d="M2055 8757 c-136 -55 -234 -121 -375 -254 -114 -107 -280 -319 -280
-358 0 -8 18 -8 73 1 96 17 159 17 236 -1 81 -19 132 -48 170 -95 47 -59 49
-94 7 -172 -19 -36 -33 -68 -30 -71 3 -3 31 2 62 11 33 9 93 15 143 15 111 -1
169 -27 217 -97 40 -60 41 -103 7 -188 -14 -34 -24 -63 -22 -64 1 -1 28 5 60
13 81 23 124 9 179 -60 79 -100 115 -209 126 -389 l7 -113 23 89 c43 168 107
290 203 385 38 37 126 81 165 81 63 0 139 -62 165 -134 17 -46 27 -45 34 2 10
60 27 94 68 139 91 99 212 80 348 -56 l69 -69 0 102 c0 116 15 180 55 233 39
51 84 66 175 61 90 -6 157 -36 243 -110 32 -28 60 -48 62 -46 11 11 -53 183
-104 283 -77 151 -140 241 -243 350 -83 87 -260 221 -278 210 -4 -2 -10 -39
-13 -81 -8 -105 -41 -170 -132 -259 -116 -114 -301 -195 -446 -195 -103 0
-113 9 -107 91 2 35 2 75 -2 89 l-6 25 -18 -33 c-28 -53 -52 -72 -94 -72 -48
0 -79 22 -99 71 -25 63 -38 49 -53 -56 -10 -62 -29 -89 -58 -77 -25 9 -170 99
-223 138 -90 66 -179 177 -225 281 -70 157 -64 256 21 386 17 27 17 27 -6 27
-13 0 -60 -15 -104 -33z m671 -878 c11 -18 -13 -34 -31 -19 -8 7 -15 16 -15
21 0 13 38 11 46 -2z m84 -24 c-13 -16 -50 -21 -50 -7 0 15 13 22 38 22 21 0
22 -2 12 -15z"/>
<path d="M6514 8380 c0 -32 -6 -46 -34 -75 -33 -34 -70 -47 -70 -24 0 8 -4 8
-15 -1 -8 -6 -19 -9 -25 -5 -6 3 -10 -3 -10 -15 0 -19 -4 -20 -37 -14 -54 9
-100 40 -111 73 -6 16 -8 32 -5 35 4 3 1 6 -5 6 -24 0 -106 -160 -90 -176 3
-2 19 3 37 12 26 13 38 14 57 5 13 -6 24 -17 24 -25 0 -12 6 -12 35 -4 36 12
65 0 65 -27 0 -7 9 -11 23 -9 24 5 44 -8 70 -46 l17 -24 0 34 c0 52 21 85 52
85 20 -1 28 5 32 21 7 28 38 39 66 24 23 -12 24 -11 11 23 -15 38 12 70 55 65
19 -2 34 -1 34 3 0 20 -135 99 -170 99 -4 0 -7 -18 -6 -40z"/>
<path d="M9285 8317 c7 -38 -19 -86 -61 -113 -25 -17 -27 -17 -39 -1 -12 16
-13 16 -19 1 -4 -9 -13 -14 -21 -10 -9 3 -15 0 -15 -9 0 -32 -97 -8 -134 33
-10 12 -18 33 -18 47 0 25 -1 25 -20 8 -25 -22 -59 -87 -69 -131 -6 -29 -5
-32 9 -26 10 4 33 8 52 8 26 1 37 -4 44 -20 9 -19 12 -20 37 -7 35 17 69 3 69
-29 0 -17 3 -18 14 -9 19 16 46 2 75 -36 l20 -28 1 35 c0 48 26 83 56 77 18
-3 24 0 24 13 0 27 26 43 59 37 29 -6 29 -6 24 33 -5 35 -3 41 20 49 14 5 35
7 48 4 l24 -6 -20 23 c-32 35 -73 61 -121 76 l-45 13 6 -32z"/>
<path d="M10700 7932 c0 -5 7 -30 16 -56 37 -108 -7 -243 -117 -360 -102 -109
-217 -160 -235 -104 -20 64 -36 91 -45 77 -5 -8 -9 -24 -9 -36 0 -48 -83 -71
-119 -32 -29 32 -40 17 -28 -40 14 -74 8 -83 -55 -75 -184 22 -303 71 -394
159 -70 69 -96 126 -95 211 0 35 -4 64 -8 64 -16 0 -136 -137 -169 -193 -68
-114 -115 -243 -156 -429 -9 -42 8 -42 74 1 109 71 236 78 307 16 26 -21 28
-29 25 -84 -1 -34 0 -61 3 -61 2 0 31 18 65 39 129 84 237 74 289 -26 6 -12
11 -42 11 -67 0 -25 2 -46 5 -46 2 0 21 11 41 25 53 36 87 36 150 -1 57 -32
127 -113 170 -195 20 -38 38 -68 40 -66 2 2 -1 40 -7 85 -26 194 54 382 163
382 30 0 102 -32 113 -50 14 -22 22 -8 15 25 -15 69 15 143 72 175 48 27 108
24 188 -11 28 -12 53 -20 55 -17 3 3 -6 30 -21 61 -76 167 -13 277 157 277 37
0 86 -7 109 -15 51 -18 50 -18 50 -4 0 19 -112 129 -195 192 -44 33 -120 80
-170 103 -119 58 -295 103 -295 76z m-380 -642 c0 -5 -4 -10 -10 -10 -5 0 -10
5 -10 10 0 6 5 10 10 10 6 0 10 -4 10 -10z m-55 -10 c3 -5 -1 -10 -9 -10 -9 0
-16 5 -16 10 0 6 4 10 9 10 6 0 13 -4 16 -10z"/>
<path d="M1420 7475 c0 -22 4 -34 10 -30 6 3 10 17 10 30 0 13 -4 27 -10 30
-6 4 -10 -8 -10 -30z"/>
<path d="M10620 6273 c-25 -8 -58 -24 -73 -35 l-29 -20 40 -18 c43 -19 59 -45
41 -67 -14 -16 -14 -16 26 -29 33 -10 45 -45 25 -70 -10 -11 -9 -14 8 -14 16
0 23 -8 27 -34 4 -19 4 -45 0 -58 -7 -21 -5 -21 26 8 19 17 41 34 49 36 21 7
50 -10 50 -29 0 -15 2 -15 18 0 27 24 47 21 71 -10 14 -19 20 -23 21 -12 0 19
31 49 50 49 8 0 27 -12 43 -27 l29 -28 -6 50 c-4 28 -19 75 -32 105 l-25 55
-20 -27 c-23 -32 -86 -52 -130 -43 -24 6 -29 11 -23 27 4 15 3 18 -6 13 -8 -5
-18 -1 -26 10 -12 17 -14 17 -20 1 -6 -16 -8 -16 -27 1 -44 39 -60 120 -31
161 14 21 14 22 -8 22 -13 -1 -43 -8 -68 -17z"/>
<path d="M11049 4620 c-17 -55 -13 -61 19 -27 25 26 28 50 9 65 -10 9 -16 1
-28 -38z"/>
<path d="M10975 4650 c3 -5 8 -10 11 -10 2 0 4 5 4 10 0 6 -5 10 -11 10 -5 0
-7 -4 -4 -10z"/>
<path d="M10937 4523 c-4 -3 -7 -18 -7 -31 l0 -25 25 23 c24 23 25 40 1 40 -7
0 -16 -3 -19 -7z"/>
<path d="M10693 2389 c16 -59 -80 -164 -108 -119 -5 8 -11 7 -20 0 -8 -7 -19
-9 -25 -5 -5 3 -10 -1 -10 -9 0 -35 -93 -6 -129 40 -14 17 -21 38 -18 52 12
63 -81 -61 -99 -132 -6 -27 -5 -27 15 -16 12 6 36 10 54 8 24 -2 33 -8 35 -25
4 -26 6 -27 34 -12 32 17 68 3 68 -27 0 -21 3 -23 17 -15 23 12 49 -2 72 -40
l18 -30 6 42 c7 55 36 85 66 70 18 -10 21 -9 21 7 0 32 27 48 60 35 l28 -10
-5 38 c-5 34 -3 40 19 48 13 5 37 7 54 4 l29 -6 -20 23 c-28 31 -93 75 -134
88 -31 11 -33 11 -28 -9z"/>
<path d="M9910 5385 c-7 -9 -10 -18 -7 -21 3 -3 10 4 17 15 13 25 8 27 -10 6z"/>
<path d="M115 7854 c-9 -15 -12 -23 -6 -20 11 7 35 46 28 46 -3 0 -12 -12 -22
-26z"/>
<path d="M167 7440 c3 -19 12 -51 19 -70 10 -30 13 -32 19 -16 5 12 -1 36 -18
70 -24 47 -26 49 -20 16z"/>
<path d="M880 4568 c-12 -22 -12 -22 6 -6 10 10 15 20 12 24 -4 3 -12 -5 -18
-18z"/>
<path d="M1470 42 c0 -26 27 -42 58 -36 41 8 41 30 1 38 -42 8 -59 8 -59 -2z"/>
</g>
</svg>
